<?xml version="1.0" standalone="no"?>
<!DOCTYPE svg PUBLIC "-//W3C//DTD SVG 20010904//EN"
 "http://www.w3.org/TR/2001/REC-SVG-20010904/DTD/svg10.dtd">
<svg version="1.0" xmlns="http://www.w3.org/2000/svg"
 width="2388.000000pt" height="1668.000000pt" viewBox="0 0 2388.000000 1668.000000"
 preserveAspectRatio="xMidYMid meet">

<g transform="translate(0.000000,1668.000000) scale(0.100000,-0.100000)"
fill="#000000" stroke="none">
<path d="M15765 14513 c-269 -157 -940 -548 -1490 -868 -550 -320 -1493 -869
-2095 -1220 -602 -351 -1545 -900 -2095 -1220 -550 -320 -1466 -854 -2035
-1185 -3374 -1965 -4695 -2734 -6190 -3605 -1221 -711 -1433 -835 -1439 -841
-3 -3 4 -13 15 -23 10 -11 422 -252 914 -536 492 -285 1232 -713 1644 -952
411 -238 755 -433 762 -433 8 0 14 4 14 8 0 4 -745 439 -1656 966 -910 527
-1652 962 -1647 966 4 4 339 200 743 435 404 235 1185 690 1735 1010 925 539
1542 898 4155 2420 531 309 1365 794 1853 1079 488 284 898 522 911 527 20 10
114 -41 794 -425 425 -240 1119 -632 1544 -872 425 -240 839 -474 921 -521 98
-55 153 -81 159 -75 13 13 36 -2 -392 240 -336 189 -1752 988 -2587 1461 -211
119 -383 219 -383 222 0 3 532 316 1183 695 650 378 1614 940 2142 1247 2584
1505 2971 1730 2991 1739 18 8 267 -135 1677 -961 911 -534 1661 -971 1666
-971 19 0 12 19 -11 33 -13 8 -106 63 -208 122 -934 544 -3086 1810 -3088
1816 -2 5 -7 9 -10 9 -4 0 -227 -129 -497 -287z"/>
<path d="M15643 13823 c-10 -4 -13 -214 -13 -1004 0 -549 -3 -999 -6 -999 -4
0 -46 23 -94 50 -48 28 -92 50 -98 50 -6 0 -27 -10 -47 -21 l-35 -21 -114 77
c-167 113 -158 93 -156 355 l1 218 -27 21 c-35 28 -83 27 -170 -3 -90 -31
-359 -160 -449 -216 -38 -24 -117 -72 -175 -107 -112 -68 -168 -116 -205 -174
-22 -35 -23 -44 -34 -447 -12 -458 -13 -450 52 -513 34 -33 57 -48 325 -204
l132 -78 -41 -30 c-32 -24 -51 -30 -81 -28 -55 3 -76 -6 -93 -39 -42 -81 12
-179 98 -180 45 0 87 35 87 75 0 14 3 25 7 25 4 0 164 -48 355 -107 l347 -106
433 -367 c404 -342 433 -368 430 -395 -5 -45 17 -111 48 -140 73 -70 170 -5
170 114 l0 39 352 193 c194 106 359 192 368 191 8 -1 33 -5 56 -8 75 -11 129
61 99 132 -7 18 -21 37 -31 42 -11 6 -17 12 -14 15 18 14 303 167 313 167 17
1 51 30 70 60 22 35 33 337 18 479 -14 129 -27 175 -62 212 -43 46 -71 40
-267 -58 l-175 -87 -63 35 c-34 18 -63 36 -65 39 -1 3 1 34 5 69 7 58 9 63 23
48 15 -14 20 -14 64 9 75 37 83 57 75 169 l-7 95 26 0 c17 0 39 12 60 33 28
28 34 42 40 101 8 76 4 131 -25 286 -10 58 -30 182 -45 275 -40 266 -42 275
-85 362 -28 57 -53 92 -83 116 -56 46 -136 94 -169 102 -27 7 -39 25 -18 25
23 0 99 84 120 133 38 87 36 214 -4 308 -5 11 1 19 18 27 62 28 74 137 20 193
-56 58 -170 58 -215 0 -19 -23 -28 -26 -87 -27 -108 -1 -187 -55 -234 -159
-18 -40 -22 -68 -22 -135 1 -101 25 -174 84 -249 46 -58 142 -111 201 -111 60
0 157 -37 234 -88 113 -76 164 -172 190 -356 8 -56 33 -209 55 -341 34 -197
41 -256 37 -329 -4 -76 -8 -91 -28 -111 -13 -13 -36 -27 -51 -30 l-28 -7 0
153 c0 160 -22 465 -40 573 -6 33 -23 101 -37 149 -41 138 -106 199 -363 348
-215 124 -281 146 -344 118 -28 -13 -40 -38 -60 -129 -21 -94 -41 -253 -73
-576 -8 -87 16 -163 70 -217 23 -23 49 -46 59 -52 14 -9 15 -23 7 -124 -4 -62
-11 -121 -14 -131 -4 -14 6 -25 45 -47 l50 -28 0 -63 0 -63 -27 15 c-16 9
-169 98 -341 198 l-314 183 2 995 c0 547 2 996 5 998 2 2 60 -29 129 -70 l126
-73 0 -42 c0 -24 -3 -43 -7 -43 -5 0 -41 18 -82 40 -41 21 -78 37 -83 34 -4
-3 -8 -128 -8 -278 l0 -272 28 -45 c36 -56 127 -138 194 -174 64 -35 129 -39
157 -10 17 18 19 43 26 300 l6 280 -106 54 c-103 52 -106 54 -101 82 18 91 30
75 -131 169 -165 95 -154 90 -170 83z m475 -538 c1 -75 -1 -135 -6 -133 -5 1
-84 52 -175 112 l-167 108 0 115 0 114 173 -90 172 -90 3 -136z m754 138 c11
-10 27 -33 35 -50 11 -28 11 -38 -1 -68 -9 -19 -25 -39 -38 -44 -19 -7 -29 0
-69 43 -26 28 -59 58 -73 65 -30 17 -33 32 -8 53 36 32 119 33 154 1z m-187
-67 c102 -47 173 -154 183 -272 6 -78 1 -84 -73 -84 -68 0 -113 25 -149 83
-26 42 -30 59 -33 134 -1 47 -5 88 -8 91 -3 3 -18 -6 -33 -21 -15 -14 -47 -35
-72 -46 -45 -21 -110 -28 -110 -13 0 5 14 29 31 55 36 55 112 97 173 97 23 0
64 -11 91 -24z m-592 -225 l29 -16 -7 -115 c-4 -63 -11 -121 -17 -127 -30 -37
-133 7 -232 99 -92 84 -96 93 -96 242 l0 126 148 -97 c81 -53 160 -103 175
-112z m495 48 c13 -85 51 -153 102 -184 26 -15 52 -20 106 -20 l71 0 -7 -26
c-13 -43 -37 -83 -72 -116 -118 -113 -308 -49 -390 133 -17 38 -22 68 -22 134
l-1 85 54 7 c30 5 73 19 95 32 23 13 44 24 47 25 4 1 11 -31 17 -70z m-188
-392 c75 -31 312 -170 380 -222 117 -90 154 -152 184 -311 36 -192 64 -668 43
-730 -16 -49 -37 -61 -68 -40 -25 16 -26 21 -54 323 -26 286 -34 337 -51 320
-4 -4 12 -203 35 -443 24 -239 41 -437 39 -439 -4 -4 -607 331 -622 345 -5 5
3 182 19 415 15 223 25 409 21 412 -17 17 -24 -28 -36 -217 -6 -113 -15 -232
-19 -264 l-6 -59 -34 29 c-45 38 -81 116 -81 177 0 89 53 527 76 629 9 38 22
75 31 83 21 22 80 18 143 -8z m-1360 -262 c9 -11 12 -67 11 -207 -1 -106 -3
-194 -5 -195 -2 -2 -25 6 -51 18 -38 17 -60 20 -103 16 -30 -3 -61 -12 -71
-20 -13 -12 -25 -13 -68 -4 -43 9 -62 8 -106 -6 -69 -22 -139 -83 -163 -142
-15 -34 -28 -48 -59 -62 -70 -32 -149 -97 -174 -144 -28 -53 -24 -97 14 -149
l24 -33 -121 -78 c-67 -43 -123 -77 -123 -76 -1 1 2 127 6 279 6 212 12 284
23 305 25 48 97 109 206 176 58 35 137 83 175 107 75 47 322 168 420 206 70
27 147 31 165 9z m-52 -411 c52 -21 89 -60 123 -126 15 -31 53 -83 83 -115
l55 -59 -356 -220 c-195 -120 -359 -220 -363 -222 -4 -2 -31 28 -61 65 -29 37
-80 97 -114 133 -101 106 -113 137 -80 200 16 31 95 95 153 124 l32 17 0 -29
c0 -137 117 -252 255 -252 236 0 341 284 164 444 -32 30 -38 40 -28 47 22 14
96 10 137 -7z m-197 -19 c192 -68 199 -343 10 -422 -41 -17 -125 -19 -166 -3
-85 32 -145 121 -145 215 1 153 155 261 301 210z m529 -237 c0 -4 -12 -11 -27
-14 -24 -6 -34 0 -85 56 -32 34 -58 67 -58 72 0 5 38 -17 85 -49 47 -32 85
-61 85 -65z m888 -414 c422 -246 769 -449 772 -452 3 -3 0 -7 -6 -9 -6 -2 -51
-29 -100 -60 -49 -31 -134 -80 -188 -110 -127 -69 -161 -96 -192 -149 -36 -61
-63 -206 -66 -351 -1 -68 -4 -123 -6 -123 -2 0 -96 52 -208 116 l-204 116 0
102 c0 179 51 136 -620 518 -316 180 -581 328 -588 328 -19 0 -29 -36 -37
-137 -4 -51 -11 -93 -15 -93 -12 0 -280 153 -279 159 0 7 951 591 962 591 4 0
353 -201 775 -446z m-1777 -4 l68 -84 -31 -26 c-19 -16 -29 -32 -26 -41 3 -9
74 -53 157 -100 146 -81 151 -85 151 -116 0 -18 5 -33 10 -33 6 0 10 3 10 8 1
42 26 29 614 -303 l596 -338 0 -39 c0 -22 -3 -37 -7 -35 -5 3 -66 38 -138 79
-71 42 -492 283 -935 538 -443 254 -809 466 -814 470 -4 5 43 42 105 83 l114
74 29 -26 c16 -14 59 -64 97 -111z m2117 -33 c34 -20 34 -20 27 -76 -4 -31 -8
-57 -10 -59 -2 -2 -39 18 -84 44 l-81 47 0 64 0 64 58 -32 c31 -17 72 -41 90
-52z m481 -77 c0 -30 -3 -60 -7 -66 -8 -12 -72 -47 -77 -42 -3 3 -25 199 -25
223 0 12 5 12 25 3 19 -9 29 -8 47 4 23 15 23 15 30 -26 3 -22 7 -66 7 -96z
m-2687 -90 c144 -84 349 -201 453 -261 105 -61 516 -297 915 -527 l725 -417 3
-72 3 -73 -48 -30 c-26 -16 -50 -30 -54 -30 -4 0 -29 13 -56 29 -145 86 -247
143 -323 181 -84 42 -319 172 -495 275 -49 29 -124 69 -165 91 -41 21 -104 57
-140 80 -36 23 -128 74 -205 114 -77 40 -192 103 -255 140 -63 37 -185 108
-270 158 -290 168 -332 196 -361 236 -27 37 -29 45 -29 137 0 105 6 133 25
125 7 -2 132 -73 277 -156z m2374 75 c46 -25 85 -49 88 -53 3 -6 -13 -112 -19
-120 -1 -1 -42 21 -90 49 -84 49 -87 52 -81 81 3 17 6 43 6 59 0 16 3 29 6 29
4 0 44 -20 90 -45z m-1428 -247 c262 -149 517 -294 567 -322 117 -68 127 -84
123 -209 l-3 -95 -588 333 c-324 183 -593 337 -597 341 -8 8 8 224 17 224 2 0
219 -122 481 -272z m1585 141 c-14 -117 -15 -118 -45 -95 -15 11 -16 20 -6 74
11 60 12 62 32 48 12 -8 20 -20 19 -27z m585 -111 c30 -60 42 -172 41 -393 0
-212 -7 -242 -62 -268 -21 -10 -248 -135 -504 -277 -256 -143 -468 -259 -470
-257 -1 2 -4 122 -5 268 -1 214 1 279 15 343 32 152 59 184 232 278 55 30 134
77 175 103 64 41 456 243 500 257 29 10 55 -9 78 -54z m-2818 -354 c41 -26
156 -89 254 -141 174 -92 257 -140 226 -130 -8 2 -151 46 -318 98 -284 87
-304 95 -321 123 l-18 31 45 33 c25 17 48 32 52 32 3 0 39 -21 80 -46z m-177
-76 c22 -44 14 -83 -19 -105 -20 -13 -29 -13 -54 -3 -40 17 -60 46 -60 90 0
38 15 64 40 73 29 9 75 -18 93 -55z m1785 -413 l192 -109 0 -38 c0 -21 -2 -38
-5 -38 -9 0 -409 231 -423 244 -8 8 -10 24 -6 44 6 30 8 32 28 19 11 -7 108
-62 214 -122z m-843 62 c39 -23 111 -65 160 -91 50 -27 132 -74 184 -103 52
-30 135 -75 185 -100 83 -41 184 -98 340 -191 l59 -35 46 24 c25 13 52 24 59
24 7 0 16 5 20 11 7 12 513 297 517 292 2 -2 5 -18 7 -35 l3 -33 -355 -194
c-308 -169 -356 -193 -364 -178 -29 56 -109 70 -153 26 -25 -25 -25 -25 -47
-6 -11 11 -184 157 -384 326 -200 168 -359 306 -355 306 5 0 40 -19 78 -43z
m1745 -173 c0 -19 -19 -56 -34 -66 -6 -4 -25 -8 -42 -8 -41 0 -66 29 -62 71 2
27 11 38 43 56 l39 22 28 -30 c15 -16 28 -36 28 -45z m-929 -432 c26 -23 33
-38 37 -80 10 -114 -82 -161 -138 -70 -33 55 -19 140 27 167 28 16 40 13 74
-17z"/>
<path d="M15855 13490 c-7 -12 12 -24 94 -64 70 -34 109 -39 79 -11 -21 21
-167 84 -173 75z"/>
<path d="M15992 13058 c-17 -17 -15 -73 2 -87 23 -19 58 21 54 62 -3 35 -33
48 -56 25z"/>
<path d="M16596 12344 c-3 -9 -6 -34 -6 -57 0 -69 -9 -74 -75 -43 -60 27 -85
32 -85 17 0 -5 34 -24 75 -42 l75 -34 -5 -40 c-10 -82 -10 -118 1 -122 12 -4
24 49 24 110 0 20 2 37 5 37 3 0 34 -13 70 -29 59 -27 75 -29 75 -11 0 4 -32
22 -71 39 l-70 32 7 79 c4 52 3 80 -4 80 -5 0 -13 -7 -16 -16z"/>
<path d="M16174 12075 c-16 -24 -16 -27 1 -45 26 -28 53 -25 61 7 14 53 -33
82 -62 38z"/>
<path d="M14617 12064 c-3 -11 -11 -48 -17 -84 -6 -36 -13 -77 -16 -92 -4 -20
-2 -28 9 -28 18 0 55 196 39 212 -7 7 -12 4 -15 -8z"/>
<path d="M17327 11034 c-23 -30 -19 -62 10 -81 19 -13 24 -12 42 6 35 35 23
102 -18 101 -9 0 -24 -12 -34 -26z"/>
<path d="M18255 12781 c-35 -14 -218 -132 -275 -177 -86 -68 -105 -103 -102
-188 1 -39 4 -258 7 -487 l6 -416 -40 -40 c-61 -61 -68 -150 -15 -213 46 -54
114 -38 153 37 31 60 1 182 -48 198 -19 6 -21 14 -21 91 0 46 2 84 4 84 3 0
145 -81 316 -181 172 -99 323 -185 336 -191 23 -11 24 -16 24 -102 l-1 -91
-32 -20 c-104 -65 -81 -275 31 -275 104 0 150 184 66 268 -34 34 -34 35 -34
125 l0 92 207 113 c158 88 208 111 214 100 5 -7 9 -40 9 -73 0 -55 -2 -61 -28
-76 -61 -34 -87 -161 -45 -217 30 -41 67 -50 100 -26 53 40 68 70 68 139 0 53
-4 67 -24 89 -14 14 -30 26 -38 26 -10 0 -13 46 -14 228 -2 454 -9 687 -20
715 -19 46 -51 52 -119 21 -33 -15 -64 -23 -72 -19 -7 5 -127 80 -266 168
l-252 160 6 34 c16 83 -31 132 -101 104z m71 -47 c9 -37 -3 -95 -23 -114 -19
-18 -389 -250 -398 -250 -3 0 -5 21 -5 46 0 90 39 135 219 251 158 103 195
115 207 67z m278 -284 c135 -85 245 -158 246 -161 0 -4 -43 -32 -96 -64 -52
-31 -110 -70 -129 -86 -40 -35 -60 -87 -52 -136 3 -19 2 -33 -2 -31 -23 9
-652 370 -649 373 2 1 89 55 193 120 105 65 199 124 210 131 11 7 23 12 27 11
3 -1 117 -72 252 -157z m424 -137 c16 -30 25 -103 13 -103 -5 0 -38 18 -72 39
l-62 39 39 21 c48 25 71 26 82 4z m-752 -206 l311 -177 6 -67 c9 -87 9 -543 1
-543 -3 0 -156 87 -340 193 l-333 192 -1 304 0 303 23 -14 c12 -8 162 -94 333
-191z m665 127 c33 -19 59 -38 59 -42 0 -4 -86 -58 -191 -121 -210 -125 -213
-125 -206 -38 5 62 28 86 167 171 58 36 107 65 109 66 2 0 30 -16 62 -36z
m103 -125 c3 -34 6 -173 6 -308 l-1 -246 -206 -113 c-113 -62 -207 -111 -208
-110 -2 2 -7 136 -10 298 l-8 296 204 122 c112 67 207 122 210 122 3 0 9 -28
13 -61z m-1089 -663 c38 -57 24 -147 -28 -181 -86 -56 -138 138 -53 197 24 16
66 8 81 -16z m1154 -122 c53 -68 -1 -208 -73 -190 -46 11 -58 83 -27 152 30
67 67 80 100 38z m-453 -275 c25 -28 31 -117 10 -157 -55 -107 -143 -60 -134
71 4 52 9 64 36 88 34 30 59 30 88 -2z"/>
<path d="M18443 11592 c-46 -36 -38 -102 12 -102 47 0 73 70 39 104 -19 20
-24 20 -51 -2z"/>
<path d="M12948 12388 l-588 -350 0 -479 c0 -434 2 -479 16 -479 13 0 399 214
482 268 l22 14 0 -105 0 -106 -41 -24 -40 -24 -57 23 c-64 26 -84 29 -114 13
-44 -24 -50 -65 -49 -348 0 -146 4 -352 7 -457 7 -189 7 -192 -14 -198 -55
-18 -93 -126 -72 -205 24 -89 99 -120 152 -63 35 36 48 72 48 133 0 56 -18 98
-54 127 -21 16 -26 31 -32 86 -4 40 -3 66 3 66 5 0 70 -26 144 -58 l134 -58 3
-98 c3 -91 1 -100 -19 -114 -79 -55 -76 -257 4 -286 109 -39 175 192 81 281
-34 31 -34 32 -34 120 l1 88 320 185 c175 102 324 186 329 188 6 2 10 -27 10
-73 0 -70 -2 -79 -25 -97 -35 -28 -55 -70 -55 -118 0 -118 96 -182 165 -110
23 24 30 41 33 88 5 69 -14 115 -58 140 -27 15 -28 21 -34 107 -3 49 -8 268
-12 485 -3 217 -10 410 -15 427 -19 61 -183 172 -235 159 -28 -7 -54 -57 -54
-103 0 -25 -12 -35 -104 -91 -57 -34 -107 -62 -111 -62 -3 0 -5 44 -4 98 l2
98 222 127 c123 70 228 127 234 127 13 0 16 996 4 1003 -5 3 -272 -153 -595
-345z m575 10 c4 -161 7 -370 7 -464 l0 -171 -570 -326 -570 -326 0 457 0 457
558 332 c306 183 560 332 563 332 3 1 9 -131 12 -291z m-77 -923 c32 -20 74
-51 92 -70 29 -32 32 -40 32 -101 l0 -66 -22 16 c-32 23 -62 43 -145 95 -65
41 -72 49 -73 78 0 46 17 83 38 83 10 0 45 -16 78 -35z m-392 -122 l-7 -100
-66 -41 c-36 -22 -66 -40 -67 -39 -1 1 -4 47 -5 101 l-3 99 74 43 c41 24 75
42 77 40 2 -2 1 -49 -3 -103z m341 -31 c121 -79 175 -115 173 -118 -10 -9
-641 -364 -649 -364 -5 0 -9 27 -9 60 0 67 -21 119 -64 159 l-25 24 242 147
c133 81 247 145 252 142 6 -3 42 -26 80 -50z m187 -553 l3 -206 -45 -25 c-25
-13 -170 -97 -323 -186 -153 -89 -283 -162 -288 -162 -5 0 -9 83 -9 193 0 105
-3 242 -6 303 l-7 110 329 187 329 187 7 -98 c4 -53 8 -190 10 -303z m-858
336 c20 -9 34 -19 32 -24 -8 -12 -146 -95 -150 -90 -7 7 14 102 25 115 15 18
48 18 93 -1z m109 -72 c14 -16 33 -45 41 -65 18 -42 21 -128 6 -128 -17 0
-253 121 -247 127 18 17 145 92 158 92 8 1 27 -11 42 -26z m-88 -160 c123 -62
135 -70 140 -98 8 -54 12 -575 4 -575 -12 0 -262 109 -270 118 -7 7 -20 622
-13 622 2 0 65 -30 139 -67z m913 -558 c29 -37 36 -87 17 -132 -18 -43 -30
-53 -66 -53 -70 0 -99 130 -43 191 24 27 68 24 92 -6z m-1017 -224 c55 -55 37
-190 -29 -220 -83 -38 -126 146 -52 221 36 35 44 35 81 -1z m315 -172 c28 -32
27 -156 -2 -196 -30 -40 -69 -42 -88 -4 -33 64 -11 191 36 211 32 12 33 12 54
-11z"/>
<path d="M13363 11828 c-38 -49 -6 -94 51 -72 19 7 21 55 4 72 -16 16 -43 15
-55 0z"/>
<path d="M13026 10424 c-24 -23 -20 -61 8 -79 31 -20 61 -7 68 30 10 51 -41
84 -76 49z"/>
<path d="M20740 12169 c0 -8 528 -315 1178 -687 647 -370 1194 -682 1215 -694
26 -16 40 -19 48 -11 7 7 -348 215 -1200 702 -666 380 -1218 694 -1226 697 -9
4 -15 1 -15 -7z"/>
<path d="M22329 10284 c-448 -262 -1103 -644 -1456 -851 -354 -206 -643 -380
-643 -385 0 -6 8 -8 19 -5 10 2 234 130 497 284 264 154 909 531 1434 838 525
306 961 563 968 570 62 58 -113 -39 -819 -451z"/>
<path d="M19587 10290 c-70 -44 -131 -80 -136 -80 -8 0 -21 -284 -21 -482 0
-95 3 -118 14 -118 8 0 16 4 18 8 2 5 68 45 148 89 80 45 145 86 144 92 -1 6
-2 137 -2 291 -2 260 -3 280 -19 280 -10 -1 -75 -37 -146 -80z m126 -491 c-10
-9 -242 -139 -248 -139 -3 0 -5 117 -5 259 l0 259 128 79 127 79 3 -265 c1
-146 -1 -268 -5 -272z"/>
<path d="M19580 9885 c-19 -22 -8 -50 19 -50 18 0 26 7 32 27 4 15 4 29 1 32
-10 11 -40 6 -52 -9z"/>
<path d="M8911 10034 c-38 -19 -62 -40 -82 -72 -43 -68 -52 -105 -47 -201 3
-72 9 -97 36 -150 18 -35 31 -65 30 -67 -2 -1 -35 -18 -73 -37 -80 -41 -100
-60 -108 -102 -63 -378 -78 -478 -83 -570 -4 -72 -2 -130 6 -170 11 -54 18
-66 71 -117 l60 -57 -16 -118 c-8 -64 -15 -120 -15 -123 0 -4 26 -19 59 -34
l58 -28 7 -131 c3 -71 5 -131 3 -133 -1 -2 -88 44 -192 101 -105 57 -196 104
-203 105 -8 0 -26 -7 -41 -16 -27 -16 -28 -15 -161 71 -74 48 -139 89 -145 92
-7 2 -35 -12 -64 -31 -28 -19 -69 -45 -91 -57 l-39 -22 -40 36 c-120 108 -276
116 -365 17 -58 -64 -71 -151 -36 -250 10 -30 15 -56 11 -58 -4 -1 -109 -60
-232 -130 l-224 -128 -3 -102 c-3 -89 -1 -107 18 -147 30 -61 117 -133 227
-187 49 -23 104 -52 124 -64 l36 -23 5 -133 c5 -143 15 -179 63 -216 14 -12
30 -22 35 -24 4 -2 6 -14 3 -28 -4 -22 -10 -26 -43 -26 -36 -1 -39 1 -44 32
-16 83 -111 124 -155 68 -26 -33 -28 -111 -4 -161 34 -73 119 -78 148 -9 14
32 36 46 79 46 17 0 18 -6 11 -57 -4 -32 -20 -125 -37 -208 -44 -222 -35 -270
71 -376 l57 -57 -12 -116 c-7 -64 -14 -125 -16 -137 -2 -15 12 -28 62 -57 l65
-38 22 -235 c12 -128 27 -295 33 -370 l12 -136 127 -84 c112 -75 130 -84 165
-81 47 4 119 49 112 69 -3 8 8 126 24 264 17 137 30 257 30 267 1 16 2 16 14
-1 15 -19 46 -16 95 9 14 8 33 14 42 14 33 0 37 22 23 130 -18 141 -18 150 4
150 9 0 36 9 58 19 57 26 63 51 47 181 -7 58 -16 167 -19 242 l-7 138 54 -30
c41 -22 114 -93 301 -292 244 -259 248 -264 248 -306 0 -23 6 -57 14 -75 17
-41 70 -87 101 -87 33 0 65 44 65 90 l0 38 263 158 c144 87 338 205 432 262
110 67 171 99 174 91 2 -7 15 -24 28 -37 55 -55 119 4 109 100 -9 88 -62 152
-109 131 -19 -9 -26 -3 -72 66 l-52 76 101 58 c125 72 193 123 278 207 78 78
98 127 74 183 -12 29 -39 49 -182 132 -223 129 -214 121 -159 156 25 16 45 33
45 38 0 5 -189 112 -421 238 l-420 228 6 75 c3 41 8 94 11 116 l6 42 56 7 c76
9 132 24 132 35 0 5 -7 35 -15 67 -8 31 -15 81 -15 110 0 52 0 52 43 71 78 35
79 37 61 208 -22 214 -73 567 -95 651 -40 160 -112 249 -268 332 l-82 45 38
18 c76 37 121 98 147 196 25 97 -24 250 -111 343 -98 106 -231 138 -342 83z
m228 -29 c46 -23 127 -101 150 -143 21 -39 6 -45 -98 -39 -132 8 -254 50 -312
108 -26 26 -24 34 12 60 77 54 160 59 248 14z m-156 -166 c90 -34 211 -53 284
-44 l52 6 10 -38 c19 -67 15 -83 -19 -83 -17 0 -48 -9 -70 -20 -51 -26 -62
-25 -91 6 -49 53 -104 76 -196 83 -82 6 -87 8 -114 41 -33 39 -35 56 -14 107
l15 36 34 -32 c18 -18 67 -45 109 -62z m-123 -104 c18 -6 19 -8 5 -35 -8 -16
-15 -42 -16 -57 -1 -27 -2 -26 -19 12 -10 22 -21 63 -25 90 l-7 50 21 -27 c12
-15 30 -30 41 -33z m197 -36 c72 -35 163 -154 163 -213 0 -16 -10 -32 -29 -45
-59 -42 -169 -18 -251 56 -70 63 -86 133 -44 201 19 30 100 31 161 1z m276
-82 c-3 -42 -31 -104 -62 -131 -21 -19 -21 -19 -21 0 0 11 -12 44 -26 73 -15
28 -25 53 -23 55 2 1 27 12 54 24 67 29 81 25 78 -21z m-425 -132 c39 -37 125
-85 152 -85 9 0 39 -8 68 -18 l52 -19 -30 -28 -29 -28 -108 71 c-59 39 -130
81 -157 93 -49 21 -49 22 -25 35 34 19 36 18 77 -21z m-37 -52 c51 -27 54 -30
54 -65 -1 -21 -2 -118 -3 -215 l-2 -178 -30 -17 c-40 -23 -52 -56 -53 -155 -3
-112 16 -113 24 -1 6 90 25 138 55 138 27 0 82 -64 94 -111 7 -25 10 -81 8
-131 -3 -63 -1 -88 8 -88 6 0 14 23 18 53 15 129 -1 207 -55 261 l-39 38 0
209 c0 115 2 209 5 209 3 0 40 -23 81 -51 73 -49 76 -52 69 -83 -3 -17 -9 -47
-12 -66 -4 -19 -14 -41 -24 -48 -26 -18 -33 -64 -15 -105 22 -55 72 -73 108
-40 35 32 13 134 -33 148 -16 5 -19 12 -14 32 3 14 9 38 12 54 3 16 10 29 14
29 18 0 149 -102 183 -141 20 -24 40 -63 49 -97 26 -92 77 -388 87 -502 21
-219 27 -345 20 -354 -12 -12 -87 -13 -99 -1 -6 6 -22 135 -36 289 -14 153
-28 282 -31 288 -21 33 -18 -47 12 -377 19 -203 33 -385 31 -402 l-2 -33 -312
168 c-172 92 -315 171 -318 174 -3 3 17 184 45 403 29 218 49 399 46 403 -16
16 -26 -33 -57 -275 -36 -289 -32 -280 -95 -213 -42 44 -52 83 -53 194 -1 163
73 632 106 668 24 27 90 23 154 -9z m510 -200 c60 -56 96 -122 124 -228 25
-97 105 -690 105 -781 0 -12 -86 -62 -93 -54 -3 3 -10 86 -16 185 -7 99 -19
223 -27 275 -20 134 -72 394 -85 427 -18 48 -57 91 -142 154 -45 34 -86 66
-91 70 -6 6 2 21 19 39 l28 29 61 -32 c33 -17 86 -55 117 -84z m-229 -168 c15
-57 -34 -89 -66 -43 -35 50 -6 113 39 84 10 -7 22 -25 27 -41z m-1416 -824
c172 -78 244 -296 136 -411 -88 -91 -237 -70 -345 50 -92 102 -104 243 -29
324 15 16 41 34 57 42 44 19 133 17 181 -5z m458 -72 c69 -45 126 -84 126 -88
-1 -5 -368 -230 -391 -239 -5 -2 -1 14 7 35 23 53 15 163 -15 222 -25 47 -25
46 33 77 16 9 47 29 69 45 22 16 41 29 43 29 2 0 59 -37 128 -81z m837 -216
c-2 -59 -6 -115 -10 -124 -5 -14 -18 -10 -88 28 l-81 44 -6 87 c-4 48 -8 108
-10 134 l-3 48 101 -55 101 -54 -4 -108z m470 53 c6 -32 13 -64 15 -71 5 -13
-4 -16 -87 -30 l-36 -7 -9 111 -9 110 55 3 c55 3 55 3 58 -27 1 -16 7 -56 13
-89z m-216 -372 c471 -256 855 -468 853 -469 -2 -2 -228 -136 -503 -299 -322
-190 -503 -292 -510 -285 -5 5 -217 123 -471 261 l-462 252 14 39 c18 50 17
131 -1 182 -8 21 -12 41 -10 43 2 2 67 -26 145 -62 77 -36 145 -66 150 -66 10
0 428 257 449 275 11 11 6 28 -32 102 -86 168 -37 141 -380 213 -258 53 -301
60 -308 47 -5 -8 -72 -89 -148 -180 -132 -156 -143 -165 -183 -172 -62 -11
-127 -44 -170 -87 l-39 -39 -110 67 -110 66 128 78 c70 43 283 173 473 288
190 116 351 211 357 211 7 1 398 -209 868 -465z m-107 349 l84 -45 -7 -82 c-4
-44 -10 -100 -14 -123 l-6 -41 -95 53 c-58 32 -94 58 -92 67 2 7 6 62 9 121 7
124 -5 119 121 50z m142 -78 c9 -11 11 -41 5 -112 -9 -136 -12 -145 -37 -130
-18 11 -19 19 -13 112 9 145 16 165 45 130z m-1715 -123 c28 -14 76 -28 109
-31 l60 -6 -181 -109 -181 -108 -9 -44 -8 -44 -172 98 c-95 53 -173 101 -173
106 -1 4 94 63 211 130 l213 121 40 -43 c22 -24 63 -55 91 -70z m705 54 c79
-21 586 -269 599 -294 9 -18 -8 -31 -205 -152 l-215 -132 -77 35 c-183 84
-270 130 -311 163 -24 19 -63 40 -87 46 -25 7 -43 16 -42 20 5 13 271 328 277
328 4 0 31 -6 61 -14z m340 -70 l155 -32 33 -58 c19 -32 32 -59 29 -62 -2 -2
-91 38 -198 91 -107 52 -189 94 -184 94 6 0 80 -15 165 -33z m-1407 -270 l157
-88 0 -120 c0 -66 -3 -118 -7 -116 -199 91 -325 175 -358 239 -10 19 -15 58
-15 119 l0 92 33 -19 c17 -11 103 -59 190 -107z m318 -68 l107 -64 -15 -34
c-9 -20 -16 -65 -17 -105 -1 -88 34 -165 99 -223 43 -38 124 -72 171 -72 12 0
25 -4 29 -9 3 -5 61 -37 130 -70 143 -69 199 -115 255 -210 77 -131 110 -283
131 -606 6 -93 14 -199 17 -235 10 -94 6 -109 -33 -126 -42 -17 -75 -18 -75
-1 0 15 -98 823 -108 892 -5 32 -19 65 -36 88 -47 62 -341 248 -470 297 -92
36 -124 37 -161 8 -29 -23 -64 -89 -65 -123 0 -11 -5 -27 -10 -35 -7 -12 -13
-11 -34 10 -15 13 -30 40 -36 59 -6 20 -10 168 -10 335 0 234 3 297 13 293 6
-2 60 -33 118 -69z m451 46 c63 -21 126 -78 154 -138 28 -60 32 -157 10 -211
-15 -35 -15 -35 -79 -35 -111 0 -308 75 -389 148 -46 42 -46 65 -1 133 65 99
192 142 305 103z m-183 -341 c91 -42 202 -73 258 -73 24 0 43 -4 43 -9 0 -13
-64 -60 -105 -77 -51 -21 -151 -18 -205 7 -89 40 -160 142 -160 229 l0 30 48
-37 c26 -20 80 -51 121 -70z m2256 -62 c3 -5 77 -51 165 -103 122 -70 157 -95
147 -104 -6 -6 -231 -144 -499 -307 l-486 -297 -126 67 -125 68 0 80 -1 80 89
52 c48 29 93 53 99 55 6 2 67 -37 136 -85 l126 -88 27 25 c23 21 29 23 36 11
11 -20 33 -19 41 1 4 10 13 13 26 9 22 -7 60 10 60 28 0 7 -54 50 -120 97 -66
46 -120 88 -120 92 0 4 -7 8 -15 8 -32 0 -11 17 92 76 l107 62 25 -19 c14 -10
85 -55 156 -98 109 -67 132 -78 141 -65 6 7 16 14 23 14 22 0 11 18 -20 30
-23 10 -33 10 -38 2 -5 -8 -19 -3 -46 15 -53 35 -52 33 -32 44 25 15 21 35
-13 59 -41 29 -78 17 -71 -23 1 -5 -21 4 -49 20 -27 15 -50 30 -50 33 0 12
101 61 113 54 6 -4 52 -32 100 -62 64 -39 85 -57 75 -63 -10 -7 -7 -14 12 -29
l25 -21 -28 12 c-34 15 -49 3 -22 -17 30 -22 63 -28 80 -14 14 12 13 16 -7 38
l-23 25 25 -16 c29 -20 40 -21 40 -4 0 6 -58 48 -129 92 -78 48 -126 84 -120
89 17 19 134 84 151 85 9 1 19 -3 23 -8z m-1386 -285 c228 -124 418 -226 423
-226 4 0 8 -30 9 -67 0 -38 4 -192 8 -343 4 -151 6 -277 4 -279 -1 -2 -155 81
-342 185 l-340 188 -11 86 c-26 183 -104 357 -197 440 -27 24 -97 67 -158 97
-60 30 -110 57 -110 60 0 3 24 14 53 25 34 13 70 37 100 68 l46 48 51 -28 c27
-16 236 -130 464 -254z m-946 131 c79 -32 320 -177 403 -243 22 -18 48 -49 57
-71 10 -25 39 -233 82 -603 36 -311 68 -576 70 -590 5 -22 -1 -27 -51 -46 -38
-15 -57 -18 -59 -10 -2 6 -20 204 -39 439 -19 236 -37 431 -40 434 -20 20 -18
-55 13 -426 18 -232 32 -424 29 -427 -5 -4 -603 328 -622 346 -5 5 9 185 33
421 30 285 39 415 32 422 -15 15 -17 5 -41 -238 -11 -121 -23 -240 -27 -265
l-6 -44 -50 54 c-88 96 -94 136 -48 361 16 79 34 196 40 260 18 186 50 259
113 259 16 0 65 -15 111 -33z m2702 -87 c14 -45 -7 -84 -84 -161 -92 -91 -153
-133 -358 -248 -87 -48 -207 -118 -268 -155 -60 -38 -153 -89 -205 -116 l-95
-48 5 76 5 76 485 297 c267 164 490 298 497 298 6 1 15 -8 18 -19z m-3114 -30
c48 -26 66 -133 29 -170 -27 -27 -46 -25 -75 6 -43 46 -42 137 2 163 23 13 21
13 44 1z m2256 -115 c54 -39 78 -62 70 -67 -8 -5 -3 -16 18 -38 16 -16 24 -30
18 -30 -5 0 -18 9 -28 20 -10 11 -26 20 -37 20 -23 0 -23 -9 0 -26 22 -17 -1
-19 -28 -2 -25 16 -37 4 -19 -19 8 -9 -20 7 -61 36 -41 29 -92 65 -113 79
l-37 25 52 33 c29 18 60 32 68 30 8 -2 52 -29 97 -61z m124 -92 c13 -16 12
-17 -3 -4 -10 7 -18 15 -18 17 0 8 8 3 21 -13z m309 -260 c67 -89 77 -113 72
-180 l-4 -61 -425 -257 c-234 -141 -427 -254 -430 -252 -2 3 -13 20 -22 39
-10 18 -33 42 -51 52 -32 19 -34 19 -63 2 l-31 -17 -36 38 c-264 274 -381 404
-350 388 19 -10 127 -69 239 -132 112 -62 208 -113 212 -113 5 0 9 -4 9 -10 0
-5 5 -10 10 -10 6 0 10 47 10 120 l0 119 43 -19 c50 -23 144 -26 172 -6 11 8
88 50 170 94 83 44 213 118 290 165 77 47 142 86 145 86 3 0 21 -20 40 -46z
m-735 -40 c69 -38 128 -76 131 -86 10 -33 -8 -99 -36 -131 -25 -28 -34 -31
-82 -31 -37 1 -66 8 -96 25 -37 21 -42 28 -42 59 0 20 -3 80 -7 134 -3 53 -3
97 1 97 3 0 63 -30 131 -67z m908 -95 c24 -32 34 -116 17 -147 -29 -55 -90 11
-90 97 0 81 33 104 73 50z m-1042 -548 c29 -16 59 -84 59 -133 0 -72 -39 -89
-84 -37 -44 53 -55 129 -24 168 13 15 23 15 49 2z m-1243 -146 c103 -58 191
-109 196 -114 4 -4 -3 -141 -18 -307 -14 -165 -26 -305 -26 -311 0 -7 -9 -12
-20 -12 -18 0 -20 5 -15 33 5 31 75 582 75 592 0 3 -6 5 -14 5 -14 0 -14 4
-62 -392 -16 -126 -32 -228 -36 -228 -5 0 -30 14 -56 31 l-47 32 3 338 c2 198
-1 339 -6 339 -16 0 -22 -113 -22 -392 l0 -269 -44 31 c-53 36 -46 3 -81 393
-26 286 -29 337 -20 337 3 0 90 -48 193 -106z m265 -181 c-2 -15 -17 -140 -33
-277 -16 -137 -34 -254 -40 -260 -14 -14 -13 -12 10 264 27 323 27 322 49 311
12 -7 17 -19 14 -38z"/>
<path d="M8669 8757 c-31 -16 -39 -75 -13 -94 27 -20 52 -16 70 12 32 49 -7
106 -57 82z"/>
<path d="M8200 7703 c0 -11 305 -292 325 -299 40 -16 2 27 -140 158 -144 132
-185 163 -185 141z"/>
<path d="M8353 7663 c-25 -10 -12 -24 19 -21 37 4 52 28 16 27 -12 0 -29 -3
-35 -6z"/>
<path d="M8183 7613 c-7 -2 -13 -9 -13 -14 0 -15 53 -6 58 9 4 12 -21 15 -45
5z"/>
<path d="M8431 7611 c-7 -5 -11 -13 -7 -19 8 -13 66 4 66 19 0 11 -41 11 -59
0z"/>
<path d="M8223 7543 c-25 -10 -12 -24 19 -21 37 4 52 28 16 27 -12 0 -29 -3
-35 -6z"/>
<path d="M8495 7541 c-9 -16 13 -22 50 -15 52 9 53 24 1 24 -25 0 -47 -4 -51
-9z"/>
<path d="M8317 7483 c-15 -14 -6 -24 20 -21 34 4 43 28 11 28 -14 0 -28 -3
-31 -7z"/>
<path d="M7094 7456 c-13 -22 -14 -29 -2 -53 16 -34 45 -41 63 -16 21 27 18
60 -7 77 -30 21 -35 20 -54 -8z"/>
<path d="M7906 6514 c-3 -9 -6 -42 -6 -75 0 -32 -2 -59 -5 -59 -3 0 -28 11
-55 25 -53 27 -70 31 -70 15 0 -5 27 -24 61 -41 l61 -30 -3 -84 c-3 -51 0 -86
6 -87 6 -2 11 6 12 17 1 11 5 46 8 77 l6 58 59 -30 c38 -19 61 -26 65 -19 8
13 13 9 -62 49 l-62 32 6 78 c4 49 2 79 -5 84 -5 3 -13 -1 -16 -10z"/>
<path d="M7516 6238 c-9 -12 -16 -30 -16 -39 0 -17 30 -49 47 -49 18 0 43 36
43 61 0 49 -47 66 -74 27z"/>
<path d="M10260 9938 c-52 -18 -133 -104 -153 -163 -34 -97 -32 -164 8 -292 6
-20 4 -23 -19 -23 -43 0 -107 -35 -151 -82 l-41 -43 -23 -224 c-47 -445 -8
-680 125 -760 l45 -26 -5 -80 c-3 -44 -8 -240 -11 -435 -3 -195 -8 -369 -11
-387 -5 -32 -4 -33 95 -83 l101 -50 49 31 c58 35 53 14 76 314 17 217 24 289
30 283 2 -2 18 -168 35 -368 17 -201 33 -375 35 -387 4 -15 25 -30 82 -53 43
-18 82 -35 86 -40 12 -11 75 13 100 39 22 21 22 26 22 342 0 281 2 322 16 332
32 24 41 56 34 122 l-7 64 28 6 c52 11 98 42 119 81 19 37 20 56 19 360 -2
445 0 432 -87 562 -88 132 -181 227 -270 277 l-69 38 28 18 c87 57 136 196
114 322 -32 177 -156 305 -304 313 -33 2 -77 -2 -96 -8z m185 -42 c76 -35 174
-155 175 -213 0 -21 -122 -16 -192 8 -72 24 -203 88 -238 117 l-25 20 25 27
c63 68 164 84 255 41z m-252 -125 c57 -39 217 -109 278 -122 27 -6 74 -9 104
-7 l55 3 6 -34 c7 -38 -4 -51 -63 -77 -54 -23 -90 -18 -136 21 -41 36 -117 65
-168 65 -52 0 -89 13 -124 44 l-36 31 16 53 c9 28 18 52 21 52 3 0 24 -13 47
-29z m-15 -161 c5 0 -2 -23 -16 -51 -23 -45 -27 -49 -33 -30 -5 11 -11 44 -15
73 l-7 52 31 -22 c16 -12 34 -22 40 -22z m160 -32 c26 -7 62 -28 92 -55 47
-42 100 -129 100 -164 0 -25 -70 -49 -141 -49 -72 0 -124 24 -168 77 -59 71
-64 142 -15 188 27 25 42 26 132 3z m291 -88 c-6 -25 -22 -65 -36 -89 l-25
-43 -32 63 -31 64 30 8 c17 5 46 16 65 26 19 9 36 17 37 16 1 0 -3 -21 -8 -45z
m-466 -85 c21 -29 22 -29 -33 -10 -23 8 -54 15 -69 15 -20 0 -23 2 -11 10 8 5
33 10 55 10 31 -1 44 -6 58 -25z m-13 -48 c30 -13 111 -58 180 -101 249 -157
323 -230 407 -401 l57 -117 1 -355 c1 -333 0 -357 -18 -379 -22 -28 -71 -32
-102 -8 -19 14 -20 27 -20 396 0 296 -3 382 -12 385 -10 4 -13 -96 -13 -476 0
-360 -3 -481 -12 -481 -13 0 -112 53 -180 96 -55 36 -158 92 -277 152 l-93 47
6 185 c16 483 19 800 8 800 -19 0 -21 -28 -27 -390 -4 -190 -8 -346 -10 -348
-9 -9 -48 23 -75 60 -40 55 -67 146 -80 271 -11 109 -6 206 26 490 16 142 18
149 46 172 39 33 112 33 188 2z m416 -122 c34 -19 84 -55 113 -81 57 -51 193
-232 216 -288 12 -28 17 -106 22 -368 3 -183 3 -354 -1 -380 -5 -31 -17 -57
-36 -78 -58 -62 -58 -61 -55 273 3 410 1 427 -75 576 -54 106 -70 129 -142
196 -44 41 -116 99 -161 128 l-80 52 54 6 c66 7 69 6 145 -36z m-383 -1207
c54 -29 101 -58 104 -65 4 -9 -84 -624 -90 -630 -1 -1 -34 15 -72 35 l-70 37
3 200 c3 249 13 475 20 475 2 0 50 -24 105 -52z m540 -76 l37 -4 0 -55 c0 -77
-11 -93 -65 -93 l-45 0 0 86 c0 78 2 85 18 78 9 -4 34 -9 55 -12z m-404 -301
l-22 -281 -31 -20 c-17 -11 -32 -15 -34 -10 -3 9 72 535 84 589 3 16 8 21 15
14 8 -8 4 -98 -12 -292z m239 166 l63 -32 -7 -335 c-4 -184 -8 -336 -9 -337
-4 -6 -135 50 -135 57 0 4 -13 164 -30 355 -16 191 -30 354 -30 362 0 10 11 7
43 -12 23 -14 70 -40 105 -58z m150 -361 l2 -315 -26 -20 c-15 -12 -31 -21
-35 -21 -5 0 -9 151 -9 335 l0 335 33 0 32 0 3 -314z"/>
<path d="M10330 8845 l0 -75 -80 40 c-89 45 -90 45 -90 27 0 -7 38 -32 85 -55
l85 -42 0 -85 c0 -50 4 -85 10 -85 6 0 10 32 10 75 0 42 4 75 10 75 5 0 38
-16 73 -35 63 -35 97 -44 97 -26 0 5 -38 29 -85 53 l-85 43 0 83 c0 66 -3 82
-15 82 -12 0 -15 -15 -15 -75z"/>
<path d="M9946 8604 c-11 -28 -6 -71 9 -84 33 -28 86 43 63 84 -12 21 -64 21
-72 0z"/>
<path d="M19634 9585 c-36 -25 -66 -37 -102 -42 -42 -5 -52 -9 -52 -25 0 -17
6 -18 50 -13 60 7 73 12 133 50 27 17 47 38 47 48 0 26 -20 21 -76 -18z"/>
<path d="M19748 9395 c-52 -62 -175 -123 -300 -150 -16 -3 -28 -12 -28 -20 0
-23 50 -19 141 11 129 43 255 142 222 175 -8 8 -17 4 -35 -16z"/>
<path d="M19750 9159 c-99 -81 -260 -164 -352 -183 -44 -9 -64 -18 -66 -29 -7
-36 91 -16 231 47 147 65 357 240 284 235 -7 0 -50 -32 -97 -70z"/>
<path d="M17328 9141 c-3 -9 -1073 -666 -1103 -677 -13 -5 -15 -64 -15 -496 0
-398 -2 -489 -13 -485 -7 3 -407 228 -889 501 -482 273 -879 496 -882 496 -3
0 -6 -6 -6 -13 0 -7 150 -97 333 -201 182 -103 635 -359 1005 -568 l672 -381
0 -222 0 -223 -94 -53 c-733 -420 -4286 -2497 -4286 -2506 0 -7 3 -13 6 -13 3
0 164 92 358 205 193 112 1175 683 2181 1269 l1830 1065 3 -132 3 -131 -30
-23 c-56 -44 -76 -136 -45 -212 27 -69 79 -88 129 -49 35 27 55 75 55 132 0
58 -13 92 -51 127 -28 26 -30 32 -27 87 l3 59 128 -56 127 -56 0 -93 c0 -86
-2 -97 -25 -124 -86 -102 -31 -326 70 -280 86 39 98 227 19 290 -34 27 -34 27
-34 112 l0 85 286 159 c157 87 287 156 289 154 3 -2 -11 -92 -29 -199 l-34
-194 29 -27 c32 -30 47 -33 96 -19 l32 9 -6 -143 -6 -143 43 -31 c31 -23 54
-31 84 -31 l41 0 43 -233 c64 -342 57 -320 97 -341 46 -25 84 -16 175 40 78
48 140 77 140 66 0 -3 4 -2 10 4 5 5 28 174 50 374 23 201 43 375 46 388 4 21
18 32 94 75 25 13 30 20 21 31 -6 7 -16 62 -21 122 -6 60 -12 123 -14 139 -3
27 1 32 45 53 59 28 89 73 96 144 12 127 -81 683 -130 773 -16 28 -33 44 -63
55 -44 17 -100 57 -91 66 3 3 20 14 39 23 18 10 47 37 63 60 26 37 30 51 30
110 0 58 -4 74 -28 108 -17 25 -47 50 -75 64 -26 12 -54 26 -62 30 -94 53
-120 62 -180 66 -94 7 -164 -21 -229 -93 -84 -92 -102 -208 -50 -320 28 -59
107 -128 171 -150 l52 -17 -80 -37 c-95 -44 -178 -95 -233 -146 l-41 -36 0
135 c0 127 -2 138 -22 161 -37 42 -189 146 -213 146 -33 0 -55 -31 -62 -88
l-6 -51 -107 -66 c-59 -36 -110 -65 -114 -65 -3 0 -6 40 -6 89 l0 89 233 136
c127 74 238 139 244 143 10 6 8 107 -12 482 -17 320 -22 478 -15 485 5 5 10
14 10 18 0 11 -48 10 -52 -1z m32 -526 c20 -413 20 -431 3 -443 -10 -8 -265
-159 -568 -336 l-550 -322 -6 456 c-3 250 -3 459 1 463 4 4 250 156 546 338
l539 329 7 -27 c4 -16 16 -221 28 -458z m590 -336 l45 -21 -45 -17 c-43 -16
-45 -16 -63 2 -10 10 -37 27 -60 38 l-42 19 60 0 c39 0 75 -8 105 -21z m-118
-30 c20 -10 39 -23 42 -28 3 -5 -8 -35 -25 -68 -26 -49 -30 -66 -27 -110 8
-93 62 -150 168 -178 l45 -12 -49 -31 c-58 -37 -97 -46 -169 -40 -240 20 -322
329 -126 474 35 26 79 24 141 -7z m279 -54 c50 -32 72 -84 67 -152 -6 -66 -29
-100 -88 -130 -53 -28 -92 -29 -146 -4 -136 62 -120 266 25 312 39 12 101 0
142 -26z m-794 -317 c107 -78 117 -92 108 -158 -4 -27 -9 -50 -11 -50 -2 0
-56 38 -119 85 -103 76 -115 89 -115 116 0 38 16 69 36 69 9 0 54 -28 101 -62z
m-427 -112 l0 -94 -60 -35 -60 -36 0 87 c0 48 4 92 8 98 6 9 101 73 110 74 1
0 2 -42 2 -94z m1191 48 c17 -15 11 -20 -89 -81 -241 -146 -419 -301 -468
-408 -42 -90 -72 -285 -90 -573 -8 -141 -19 -261 -23 -265 -17 -18 -81 -20
-99 -3 -17 15 -15 37 64 512 l81 495 34 35 c71 74 283 191 414 229 28 9 72 29
96 44 52 35 57 36 80 15z m-794 -87 l111 -83 -291 -177 c-161 -98 -306 -186
-323 -197 l-32 -20 5 44 c8 64 -12 110 -65 157 -37 32 -44 42 -32 49 8 5 125
77 260 159 135 83 247 151 250 151 3 0 55 -37 117 -83z m884 43 c31 -17 48
-62 85 -225 37 -165 63 -351 71 -505 4 -81 2 -100 -15 -130 -18 -33 -85 -81
-96 -69 -3 3 -16 119 -29 257 -14 139 -27 256 -31 259 -3 3 -9 3 -13 -1 -4 -3
10 -190 30 -414 21 -224 37 -414 37 -424 0 -11 -97 -70 -302 -185 -166 -92
-310 -171 -320 -175 -23 -9 -24 -38 12 471 20 280 27 428 21 434 -16 16 -19
-2 -39 -293 -20 -300 -24 -315 -84 -346 -52 -27 -54 -21 -46 152 17 387 52
654 96 739 59 115 306 318 531 437 59 31 64 32 92 18z m-1431 -94 l0 -94 -57
-36 -58 -35 -32 25 c-63 48 -121 55 -157 18 -14 -13 -15 -31 -10 -112 l7 -96
-44 26 c-24 14 -70 40 -102 58 -48 27 -56 35 -45 46 11 10 488 293 496 294 1
0 2 -42 2 -94z m682 -93 c4 -80 -3 -147 -44 -400 -27 -170 -47 -263 -54 -263
-7 0 -137 -70 -289 -155 -153 -85 -280 -155 -283 -155 -8 0 7 615 16 618 4 2
149 90 322 197 173 106 318 194 323 194 4 1 8 -16 9 -36z m-858 -59 l38 -26
-68 -44 c-38 -24 -72 -44 -76 -44 -14 0 -9 128 5 133 29 12 65 5 101 -19z
m112 -97 c45 -42 48 -46 52 -107 4 -56 3 -62 -12 -57 -23 9 -216 128 -216 133
0 7 104 73 117 73 6 1 33 -18 59 -42z m-77 -128 l131 -81 0 -286 c0 -158 -4
-293 -9 -301 -7 -10 -34 -2 -132 42 l-124 54 -6 164 c-10 263 -10 489 0 489 5
0 68 -36 140 -81z m-109 -791 c38 -63 20 -187 -30 -203 -51 -16 -90 31 -90
110 0 106 76 165 120 93z m1065 -140 c-4 -35 -13 -72 -20 -84 -19 -29 -75 -84
-86 -84 -5 0 -9 42 -9 94 0 93 0 94 24 94 14 0 40 9 58 20 18 11 35 21 36 21
2 1 1 -27 -3 -61z m552 25 c-3 -10 -22 -174 -43 -365 l-39 -348 -49 -24 c-28
-14 -51 -24 -52 -23 -1 1 -5 153 -9 337 l-7 335 94 52 c104 58 111 60 105 36z
m-1334 -38 c62 -61 36 -240 -34 -240 -65 0 -81 172 -22 237 20 22 37 23 56 3z
m1110 -242 c4 -91 7 -243 7 -338 l0 -172 -53 -26 c-61 -31 -87 -34 -87 -9 0 9
-14 149 -31 311 -17 161 -27 297 -22 301 10 11 166 99 174 100 3 0 9 -75 12
-167z m-341 75 c-4 -61 -5 -61 -60 -35 -22 10 -22 11 20 53 24 23 43 42 43 41
1 -1 -1 -28 -3 -59z m123 -60 c7 -47 55 -509 55 -538 0 -68 -24 21 -70 265
l-51 269 23 18 c32 24 36 23 43 -14z"/>
<path d="M17203 8262 c-6 -4 -16 -19 -22 -33 -11 -30 5 -72 31 -77 40 -8 65
70 32 102 -17 18 -24 19 -41 8z"/>
<path d="M16858 6849 c-35 -13 -41 -33 -23 -75 15 -38 31 -42 75 -19 38 20 42
66 8 89 -25 18 -24 18 -60 5z"/>
<path d="M19873 8960 c-80 -107 -333 -243 -529 -283 -49 -10 -70 -18 -72 -30
-7 -36 108 -13 281 58 176 71 324 171 362 246 32 62 1 69 -42 9z"/>
<path d="M12053 8759 c-7 -7 -13 -25 -13 -40 0 -14 -3 -40 -6 -56 -6 -32 3
-26 -341 -229 l-192 -113 -35 14 c-49 21 -108 19 -132 -3 -18 -17 -21 -51 -42
-497 l-23 -478 -28 -33 c-54 -61 -48 -159 14 -221 55 -55 113 -42 147 34 35
79 3 180 -67 209 l-35 14 0 70 c0 39 3 70 8 71 4 0 112 -53 239 -118 l233
-118 0 -92 c0 -83 -2 -93 -21 -103 -52 -28 -69 -172 -30 -249 23 -43 61 -62
90 -44 58 37 75 172 31 251 -13 23 -27 42 -32 42 -4 0 -8 42 -8 93 l0 92 166
93 c91 51 167 92 169 90 2 -2 -3 -124 -11 -272 -13 -250 -15 -271 -34 -289
-45 -41 -52 -115 -19 -185 44 -90 132 -93 171 -4 35 79 -1 186 -70 207 -31 9
-32 11 -32 66 0 32 2 63 5 71 4 10 67 -18 235 -102 l230 -115 0 -90 c0 -80 -2
-92 -21 -103 -30 -19 -49 -73 -49 -142 0 -166 126 -204 161 -49 13 56 -5 139
-37 174 -22 23 -24 35 -24 113 l0 87 318 178 c175 97 321 177 325 177 4 0 7
-30 7 -66 0 -57 -4 -71 -26 -97 -24 -28 -26 -37 -22 -103 4 -79 22 -116 71
-144 21 -12 29 -12 51 -1 74 40 62 228 -18 271 l-26 14 0 505 1 506 -80 55
c-128 88 -279 172 -319 177 -48 6 -58 -6 -64 -76 -3 -31 -11 -57 -19 -62 -8
-4 -86 -51 -174 -103 l-160 -95 -5 297 -5 297 -82 55 c-216 145 -339 201 -370
169z m188 -90 c68 -40 150 -89 182 -111 l57 -39 0 -69 c0 -40 -4 -70 -10 -70
-8 0 -377 238 -403 260 -4 3 -4 27 -1 53 6 40 10 47 28 47 12 0 78 -32 147
-71z m9 -185 c105 -70 188 -130 183 -135 -4 -4 -60 -41 -123 -81 -63 -41 -197
-127 -297 -191 -100 -64 -184 -117 -186 -117 -3 0 -11 24 -17 54 -18 89 -54
133 -175 215 -106 72 -107 74 -84 88 13 8 128 76 254 152 127 76 235 139 242
140 7 0 98 -56 203 -125z m226 -560 c-3 -7 -33 -28 -67 -47 -59 -33 -63 -34
-95 -21 -43 18 -104 17 -128 -1 -17 -13 -20 -35 -28 -192 -5 -98 -13 -182 -17
-186 -5 -5 -80 -49 -167 -98 l-159 -89 -8 167 c-7 162 -3 346 10 427 5 34 13
43 72 80 36 22 183 116 326 208 l260 167 3 -202 c1 -111 0 -207 -2 -213z
m-1037 392 l34 -12 -62 -37 c-34 -20 -65 -37 -67 -37 -3 0 -4 17 -2 37 2 28 9
41 28 50 29 15 26 15 69 -1z m177 -109 c132 -89 163 -131 171 -231 3 -37 3
-66 0 -66 -9 0 -388 259 -410 279 -16 16 -14 19 45 54 35 20 68 37 74 37 7 0
61 -33 120 -73z m1439 -18 c50 -29 125 -75 168 -102 l77 -50 0 -74 0 -75 -22
14 c-110 72 -383 252 -385 252 0 1 1 23 4 50 6 47 6 48 37 43 17 -3 72 -29
121 -58z m-1488 -168 c190 -129 218 -151 215 -172 -1 -13 -2 -142 -2 -286 0
-145 -2 -263 -6 -263 -5 0 -454 229 -463 236 -5 4 18 557 25 602 3 17 7 32 9
32 2 0 102 -67 222 -149z m1536 -36 c141 -93 163 -111 149 -121 -42 -28 -583
-374 -587 -374 -2 0 -9 25 -15 54 -6 30 -22 71 -35 90 l-24 35 171 111 c94 61
174 108 178 103 14 -16 28 -72 23 -92 -7 -26 13 -27 27 -2 7 13 7 28 0 46 -15
40 -14 41 37 41 28 -1 48 4 50 12 3 8 -7 12 -34 12 -21 0 -45 5 -53 10 -13 9
-13 11 1 20 38 22 62 47 52 53 -6 4 -64 -28 -130 -71 -65 -43 -168 -110 -229
-150 l-111 -72 -94 62 c-51 35 -94 67 -94 71 0 4 112 74 249 156 248 148 250
149 276 132 15 -9 101 -65 193 -126z m190 -786 c-15 -15 -636 -359 -640 -355
-9 9 -5 542 4 576 8 32 33 50 323 237 l315 202 3 -326 c1 -180 -1 -330 -5
-334z m-1005 638 l33 -12 -63 -37 -63 -38 -3 32 c-3 24 2 37 18 50 25 21 33
21 78 5z m165 -99 c48 -32 87 -62 87 -66 0 -4 -16 -17 -35 -30 -19 -12 -35
-27 -35 -32 0 -15 9 -12 56 15 l43 25 20 -26 c27 -34 43 -94 39 -145 l-3 -40
-202 138 c-111 76 -201 143 -201 148 1 15 121 84 133 77 5 -3 49 -32 98 -64z
m-14 -203 l191 -130 -6 -35 c-4 -19 -6 -144 -5 -277 1 -134 -1 -243 -5 -243
-9 0 -419 209 -440 224 -15 12 -15 33 -5 277 6 145 14 283 17 307 l5 43 28
-18 c15 -10 114 -76 220 -148z m-1100 -221 c46 -33 65 -119 36 -173 -36 -71
-110 -47 -134 44 -13 51 1 108 32 130 27 19 37 19 66 -1z m483 -295 c29 -38
34 -134 11 -179 -41 -79 -97 -29 -97 85 0 68 25 128 51 123 9 -2 25 -15 35
-29z m1556 -69 c26 -51 28 -96 8 -145 -43 -103 -146 46 -105 152 22 59 65 56
97 -7z m-1165 -111 c43 -59 27 -171 -27 -185 -73 -18 -124 102 -80 187 13 26
20 30 51 27 25 -2 42 -11 56 -29z m453 -270 c25 -49 28 -128 7 -169 -41 -79
-97 -30 -98 85 0 102 55 153 91 84z"/>
<path d="M12000 8516 c-6 -8 -10 -25 -8 -37 8 -55 88 -47 88 10 0 40 -53 58
-80 27z"/>
<path d="M11875 8430 c-3 -5 10 -16 29 -24 19 -8 54 -32 78 -53 61 -55 89 -73
116 -73 21 0 22 2 12 15 -7 8 -18 15 -25 15 -7 0 -32 17 -56 39 -88 77 -140
104 -154 81z"/>
<path d="M11776 8379 c6 -11 175 -123 222 -148 18 -10 22 -9 22 3 0 8 -50 46
-112 85 -105 66 -149 86 -132 60z"/>
<path d="M11670 8311 c0 -12 207 -162 232 -169 40 -10 12 18 -96 96 -110 79
-136 93 -136 73z"/>
<path d="M11867 7582 c-26 -29 -22 -71 9 -82 32 -13 30 -13 48 6 9 8 16 28 16
43 0 49 -42 68 -73 33z"/>
<path d="M12864 8042 c-6 -4 -16 -17 -22 -28 -18 -34 5 -56 53 -52 37 3 40 5
43 37 2 20 -2 37 -10 42 -16 11 -49 11 -64 1z"/>
<path d="M12735 7084 c-34 -34 3 -105 39 -75 19 16 21 62 4 79 -16 16 -23 15
-43 -4z"/>
<path d="M5517 8126 c-317 -177 -582 -327 -588 -333 -12 -12 0 -953 12 -953 5
0 117 59 250 131 132 72 243 128 246 126 5 -6 23 -123 23 -159 0 -23 -11 -34
-61 -67 l-62 -39 -41 19 c-42 19 -102 25 -123 11 -27 -17 -34 -63 -18 -116 13
-45 14 -101 8 -444 l-8 -392 -27 -23 c-76 -62 -76 -219 -1 -248 112 -42 183
188 79 256 -24 16 -26 23 -26 86 0 38 3 69 8 69 4 -1 23 -14 42 -30 19 -17 39
-30 44 -30 5 0 20 -9 32 -21 12 -11 46 -33 75 -48 l54 -28 3 -88 c3 -82 1 -90
-22 -114 -29 -30 -56 -100 -56 -143 0 -40 24 -94 48 -107 31 -17 56 -13 87 11
84 66 87 248 5 265 l-30 6 0 97 0 97 168 81 169 82 39 -19 c21 -11 51 -25 66
-32 22 -10 25 -15 18 -30 -15 -26 -12 -65 7 -107 9 -20 15 -40 15 -44 -1 -4 5
-137 13 -295 8 -159 15 -317 16 -351 2 -59 4 -64 28 -73 14 -5 34 -14 43 -19
26 -15 40 -13 101 14 107 48 99 28 141 391 20 176 37 327 37 335 1 12 51 -211
99 -438 15 -68 43 -89 94 -72 19 6 36 14 38 18 2 4 35 23 73 42 l70 35 -3 430
c-1 237 -5 458 -8 492 -5 56 -4 62 11 57 11 -5 33 10 70 49 44 46 58 68 76
127 19 64 21 87 16 203 -19 426 -28 570 -37 587 -28 53 -168 140 -225 140 -11
0 -9 10 7 48 30 65 36 183 14 250 -47 141 -170 210 -308 172 -52 -15 -127 -68
-164 -117 -18 -23 -33 -40 -35 -38 -2 2 -2 135 1 297 5 267 2 320 -19 317 -3
0 -266 -146 -584 -323z m577 -38 c-4 -251 -9 -335 -21 -378 -15 -52 -14 -171
2 -211 4 -12 -112 -79 -552 -317 l-558 -302 -6 173 c-4 94 -7 296 -8 448 l-1
276 568 317 c312 173 570 316 574 316 4 0 4 -145 2 -322z m401 -141 c46 -26
101 -102 111 -153 8 -45 -9 -84 -59 -134 -74 -74 -254 -140 -383 -140 -60 0
-64 1 -70 26 -13 51 2 168 28 225 34 73 97 142 160 173 69 34 155 36 213 3z
m101 -344 c-24 -71 -61 -127 -117 -177 -48 -44 -122 -76 -172 -76 -63 0 -153
54 -182 109 l-14 28 82 6 c89 6 229 48 300 90 23 14 58 42 77 62 42 43 50 29
26 -42z m69 -129 c11 -4 33 -16 50 -26 l30 -18 -50 6 c-38 4 -69 0 -127 -19
l-77 -25 46 53 c49 55 58 57 128 29z m-490 -106 l45 -32 -81 -43 c-85 -47 -96
-48 -155 -12 -38 23 -73 24 -80 4 -4 -8 -9 -37 -13 -64 l-6 -50 -115 -69 -115
-70 -7 26 c-13 45 -19 136 -11 148 4 6 109 65 232 132 l225 121 18 -30 c10
-16 38 -44 63 -61z m585 20 c55 -28 53 -21 71 -343 24 -414 16 -469 -79 -563
l-57 -57 -6 300 c-3 165 -7 331 -8 368 -1 46 -5 67 -12 65 -13 -4 -13 -124 -3
-668 l7 -325 -84 -46 c-46 -26 -110 -61 -142 -78 -33 -18 -70 -39 -83 -47 -12
-9 -28 -13 -33 -10 -5 4 -13 0 -18 -8 -4 -8 -55 -41 -113 -74 -100 -57 -105
-59 -111 -38 -3 11 -9 147 -12 301 -13 539 -18 635 -35 635 -12 0 -14 -17 -8
-107 3 -60 9 -230 12 -379 7 -270 6 -272 -14 -278 -31 -10 -91 4 -102 23 -5
11 -1 184 11 450 l19 432 29 42 c35 51 147 159 216 209 83 60 281 169 353 194
85 30 145 31 202 2z m-476 -114 c-49 -31 -105 -67 -124 -82 -64 -47 -170 -155
-199 -201 l-29 -46 -16 -395 c-22 -519 -20 -507 -71 -456 -41 41 -45 82 -45
431 0 541 11 563 370 753 79 43 104 51 149 51 l54 1 -89 -56z m-319 -15 c4 -5
18 -14 32 -20 24 -9 24 -10 -27 -44 -29 -19 -54 -35 -56 -35 -4 0 5 75 12 98
4 15 30 16 39 1z m-358 -91 c0 -13 3 -53 8 -89 l8 -67 -64 -40 -64 -41 -8 37
c-4 20 -9 63 -10 97 l-2 60 60 32 c72 39 73 39 72 11z m250 -76 c-44 -51 -74
-147 -83 -274 -4 -49 -11 -88 -15 -88 -4 0 -69 -36 -144 -79 l-135 -80 0 35
c0 72 -22 126 -67 171 l-44 42 38 25 c21 14 133 83 248 155 188 117 246 143
202 93z m-582 -262 c14 -5 25 -12 25 -14 0 -2 -26 -21 -57 -40 -52 -32 -58
-34 -65 -19 -12 31 -9 61 8 78 17 17 35 16 89 -5z m103 -56 c44 -34 72 -95 72
-161 0 -29 -2 -53 -5 -53 -22 0 -167 83 -203 115 l-45 41 69 42 c38 23 71 42
73 42 2 0 20 -12 39 -26z m411 -644 c11 -20 11 -25 1 -28 -8 -3 -81 -38 -163
-79 -82 -41 -151 -72 -153 -70 -2 2 -1 136 3 297 l8 292 140 83 140 82 5 -276
c4 -210 8 -282 19 -301z m-429 438 l85 -43 0 -292 c0 -160 -3 -294 -6 -298
-11 -10 -78 22 -115 55 -19 16 -38 30 -43 30 -4 0 -27 15 -50 33 l-42 34 1
262 c0 144 3 275 6 291 l6 29 37 -29 c20 -16 74 -49 121 -72z m1319 -883 l1
-230 -59 -33 c-53 -29 -60 -30 -65 -15 -5 17 -115 553 -119 581 -1 8 48 41
113 78 l115 64 6 -108 c4 -59 7 -210 8 -337z m-625 300 c3 -11 6 -46 6 -77 0
-54 -2 -58 -24 -58 -55 0 -98 71 -82 134 5 22 11 24 50 23 36 -2 46 -6 50 -22z
m359 -27 c29 -118 117 -574 113 -584 -7 -17 -40 -18 -53 -1 -10 12 -124 537
-123 568 0 9 10 21 23 27 32 15 34 15 40 -10z m-133 -313 c-17 -132 -30 -249
-30 -260 0 -11 -5 -55 -10 -98 -11 -88 -25 -106 -107 -139 -43 -17 -43 -17
-47 5 -9 41 -13 666 -5 661 5 -3 57 22 116 55 102 57 108 59 110 38 2 -12 -11
-130 -27 -262z m-1061 199 c23 -51 10 -125 -29 -164 -25 -25 -45 -25 -70 0
-44 44 -14 183 42 192 33 6 44 0 57 -28z m826 -49 c2 -11 6 -161 8 -332 5
-304 4 -313 -14 -313 -11 0 -22 6 -24 13 -4 10 -35 597 -35 656 0 17 3 18 30
8 17 -7 33 -21 35 -32z m-535 -115 c23 -23 28 -99 9 -147 -15 -40 -49 -73 -75
-73 -73 0 -72 161 1 218 34 27 40 27 65 2z"/>
<path d="M5919 7589 c-30 -30 -23 -73 14 -77 36 -4 57 13 57 47 0 50 -35 66
-71 30z"/>
<path d="M6355 6959 c-4 -5 -4 -46 0 -89 l7 -79 -76 -38 c-42 -20 -76 -41 -76
-45 0 -15 30 -8 80 17 27 14 54 25 60 25 6 0 10 -30 10 -76 0 -53 3 -75 12
-72 7 3 10 31 9 86 l-2 82 85 42 c47 23 86 46 86 50 0 16 -32 7 -100 -27 l-70
-35 0 85 c0 78 -8 102 -25 74z"/>
<path d="M5974 6166 c-3 -8 -4 -31 -2 -52 3 -34 6 -39 28 -39 20 0 27 7 34 36
5 20 6 44 3 53 -8 20 -56 21 -63 2z"/>
<path d="M5572 6498 c-30 -39 -21 -88 18 -88 22 0 50 31 50 56 0 38 -45 59
-68 32z"/>
<path d="M18523 8112 c-361 -211 -454 -272 -416 -272 19 0 853 495 853 507 0
7 -3 13 -7 12 -5 0 -198 -111 -430 -247z"/>
<path d="M3228 7133 c-3 -4 4 -520 15 -1146 11 -626 17 -1140 15 -1143 -3 -2
-29 7 -59 21 -67 31 -91 31 -125 2 -21 -18 -28 -35 -32 -75 -3 -40 -8 -52 -21
-52 -69 0 -48 -135 29 -187 36 -25 79 -30 98 -11 31 31 4 125 -49 172 -22 20
-29 35 -29 64 0 47 24 82 55 82 28 0 289 -131 373 -187 83 -55 105 -93 99
-166 -4 -46 -11 -63 -31 -82 -15 -14 -26 -35 -26 -50 0 -67 66 -149 116 -143
61 7 58 107 -5 170 -38 37 -38 38 -29 86 22 110 -20 164 -216 271 -97 53 -116
67 -116 87 0 81 -30 1813 -35 2012 l-6 242 155 -77 c136 -68 155 -80 160 -105
11 -57 0 -60 -74 -20 -45 24 -72 34 -78 27 -6 -5 -14 -134 -19 -285 -10 -274
-10 -275 12 -310 35 -55 129 -138 187 -165 92 -43 200 -27 214 31 13 53 -13
544 -29 544 -7 0 -176 92 -195 106 -2 1 1 11 6 21 5 10 7 35 4 56 l-4 38 -172
87 c-94 48 -174 88 -178 90 -3 2 -8 -1 -10 -5z m429 -361 c99 -55 102 -58 108
-97 4 -22 5 -75 3 -118 l-3 -77 -165 91 c-91 50 -169 94 -173 98 -4 4 -5 58
-1 119 l7 111 61 -34 c34 -20 107 -61 163 -93z m-22 -252 c72 -40 133 -75 136
-79 4 -3 9 -57 12 -119 7 -138 -1 -152 -86 -152 -68 0 -138 34 -206 101 -80
78 -83 88 -75 239 l7 129 41 -23 c23 -13 100 -56 171 -96z m-527 -1857 c38
-55 37 -103 -2 -103 -59 0 -127 108 -91 144 15 14 19 14 45 1 16 -8 37 -27 48
-42z m519 -275 c45 -50 61 -128 26 -128 -25 0 -38 10 -62 50 -43 72 -15 134
36 78z"/>
<path d="M3490 6795 c0 -22 152 -117 165 -104 7 8 4 15 -8 23 -11 6 -48 30
-84 54 -36 23 -68 42 -69 42 -2 0 -4 -7 -4 -15z"/>
<path d="M3617 6342 c-30 -33 -16 -82 24 -82 38 0 66 81 33 94 -26 10 -40 7
-57 -12z"/>
<path d="M11455 5543 c-10 -3 -51 -25 -90 -50 -38 -24 -99 -58 -135 -75 -36
-16 -67 -32 -69 -34 -8 -8 -18 -580 -10 -588 7 -8 147 57 302 141 42 23 63 53
37 53 -7 0 -8 95 -3 280 4 167 3 280 -3 279 -5 -1 -18 -4 -29 -6z m9 -110 c-2
-43 -6 -163 -8 -267 -5 -184 -5 -190 -28 -208 -35 -26 -246 -133 -252 -127 -3
3 -2 124 2 269 l7 263 70 37 c39 20 97 53 129 73 33 20 65 37 72 37 9 0 11
-21 8 -77z"/>
<path d="M11301 5094 c-23 -29 -24 -34 -15 -58 14 -36 94 -4 94 38 0 49 -47
61 -79 20z"/>
<path d="M4370 5047 c0 -52 3 -189 7 -305 l6 -212 144 -90 c80 -49 148 -90
153 -90 11 0 19 106 26 368 6 193 5 232 -7 232 -16 0 -295 165 -304 180 -17
28 -25 1 -25 -83z m316 -172 c-3 -22 -8 -140 -12 -263 -4 -123 -10 -222 -14
-220 -4 2 -61 36 -127 77 l-120 75 -7 110 c-3 61 -6 184 -6 273 l0 162 146
-87 145 -87 -5 -40z"/>
<path d="M4512 4658 c-32 -32 -1 -85 42 -74 31 8 40 33 21 62 -17 26 -44 31
-63 12z"/>
<path d="M11364 4770 c-35 -28 -61 -41 -98 -47 -36 -6 -52 -13 -54 -26 -3 -13
3 -17 30 -17 18 1 49 7 69 14 42 15 119 75 119 93 0 26 -20 21 -66 -17z"/>
<path d="M11455 4544 c-58 -51 -146 -93 -239 -113 -55 -12 -81 -22 -81 -32 0
-11 12 -13 50 -11 96 5 218 57 291 124 72 67 52 97 -21 32z"/>
<path d="M7688 4508 c-20 -15 -38 -59 -38 -93 0 -20 -40 -48 -269 -189 l-270
-166 -37 25 c-69 47 -113 45 -134 -6 -15 -35 -8 -142 11 -165 12 -14 10 -179
-7 -615 l-7 -156 -27 -17 c-40 -23 -70 -91 -70 -155 0 -45 4 -57 29 -82 41
-41 74 -38 121 9 43 42 65 107 56 158 -8 38 -41 84 -62 84 -11 0 -14 17 -14
75 0 41 2 75 5 75 3 0 92 -63 199 -140 107 -77 199 -140 205 -140 14 0 15
-156 1 -165 -26 -16 -53 -92 -54 -150 -1 -133 86 -182 151 -84 36 55 44 169
14 216 -11 18 -32 35 -46 39 -24 6 -25 9 -25 88 l0 81 334 211 334 211 6 -30
c12 -60 7 -154 -10 -168 -8 -7 -25 -31 -36 -53 -28 -55 -22 -154 12 -191 29
-31 51 -32 87 -1 67 57 70 230 4 251 -12 4 -21 15 -21 27 0 11 -11 193 -25
405 -16 234 -22 389 -17 396 5 7 12 38 16 70 11 101 -19 138 -236 283 -100 68
-151 85 -180 62z m118 -54 c66 -39 194 -133 236 -172 32 -29 43 -74 31 -120
l-8 -31 -192 120 -193 120 0 40 c0 88 33 99 126 43z m-143 -102 c3 -4 89 -59
191 -122 102 -63 185 -118 183 -122 -1 -6 -546 -392 -594 -421 -7 -5 -17 18
-28 68 -14 62 -23 82 -61 124 -24 27 -83 75 -131 106 -64 43 -83 60 -72 66 8
5 122 76 254 158 132 82 243 150 247 150 4 1 9 -2 11 -7z m-614 -283 l35 -21
-25 -19 c-13 -10 -41 -28 -61 -39 l-38 -21 0 45 c0 24 3 51 6 60 8 22 42 20
83 -5z m1005 -41 c13 -105 36 -532 29 -539 -4 -4 -154 -100 -333 -213 l-325
-205 -3 276 c-2 260 -1 278 16 296 22 22 594 426 604 426 4 1 9 -18 12 -41z
m-862 -55 c40 -26 90 -60 111 -77 40 -32 81 -108 92 -170 l6 -38 -58 33 c-32
18 -129 74 -216 125 l-157 91 62 42 c35 22 68 41 75 41 7 0 45 -21 85 -47z
m58 -230 l135 -79 3 -313 c2 -267 0 -312 -12 -308 -8 3 -97 65 -198 138 -100
72 -189 134 -195 136 -10 4 -12 36 -8 132 3 69 8 197 11 284 l6 158 62 -35
c33 -19 122 -70 196 -113z m910 -524 c18 -32 12 -121 -10 -157 -27 -43 -47
-50 -73 -23 -17 16 -21 32 -21 74 2 102 69 172 104 106z m-1161 -125 c23 -29
27 -77 10 -121 -15 -40 -59 -83 -84 -83 -79 0 -80 163 -1 211 41 25 51 24 75
-7z m461 -269 c51 -61 10 -235 -55 -235 -52 0 -72 107 -36 186 27 58 66 79 91
49z"/>
<path d="M7522 3324 c-51 -36 -8 -114 47 -85 35 19 24 101 -14 101 -6 0 -21
-7 -33 -16z"/>
<path d="M4443 4363 c-13 -34 145 -138 178 -117 21 13 6 34 -31 44 -37 10 -96
50 -113 77 -11 18 -26 16 -34 -4z"/>
<path d="M11503 4321 c-64 -60 -254 -157 -338 -173 -67 -12 -101 -33 -71 -44
89 -34 486 172 486 252 0 25 -24 14 -77 -35z"/>
<path d="M11582 4147 c-101 -146 -356 -296 -504 -297 -62 0 -81 -12 -47 -31
30 -15 131 -6 196 19 64 24 196 103 268 159 57 45 148 158 142 176 -8 24 -27
15 -55 -26z"/>
<path d="M4370 4161 c0 -27 96 -121 156 -154 54 -28 131 -44 160 -33 26 10 -2
36 -41 36 -53 0 -150 56 -202 116 -48 56 -73 68 -73 35z"/>
<path d="M4295 3960 c-9 -15 56 -91 129 -152 118 -99 356 -182 373 -131 3 7
-8 15 -24 18 -76 15 -194 59 -251 92 -34 20 -94 70 -133 110 -72 74 -83 81
-94 63z"/>
<path d="M4215 3740 c-9 -14 107 -133 181 -186 145 -104 421 -211 455 -177 17
17 2 33 -30 33 -94 0 -346 125 -472 234 -48 41 -89 82 -92 90 -7 18 -33 21
-42 6z"/>
<path d="M10685 3522 c-16 -10 -572 -327 -1235 -704 -663 -377 -1400 -797
-1639 -933 -238 -135 -443 -251 -455 -257 -20 -8 -92 30 -567 305 -299 173
-791 457 -1094 632 -302 175 -595 344 -651 376 -98 58 -124 68 -124 50 0 -10
99 -67 1485 -868 1045 -604 946 -548 955 -534 3 7 159 98 346 205 330 187
1733 985 2598 1478 237 135 432 250 434 256 6 18 -19 14 -53 -6z"/>
</g>
</svg>
